<svg xmlns="http://www.w3.org/2000/svg" viewBox="0 0 100 120">
    <rect width="50" height="70" x="25" y="15" fill="#514ED9"/>
    <path fill="#FF6140 "
          d="M59.741,56.342c-0.586,1.301-0.868,1.883-1.622,3.032c-1.055,1.605-2.543,3.609-4.382,3.622 c-1.637,0.015-2.059-1.068-4.282-1.049c-2.221,0.011-2.683,1.07-4.322,1.053c-1.841-0.017-3.248-1.821-4.303-3.424 c-2.951-4.494-3.263-9.763-1.439-12.566c1.291-1.987,3.331-3.155,5.248-3.155c1.953,0,3.18,1.072,4.794,1.072 c1.567,0,2.52-1.074,4.779-1.074c1.707,0,3.511,0.93,4.802,2.535C54.792,48.702,55.478,54.729,59.741,56.342z M52.495,42.059 c0.822-1.055,1.446-2.543,1.219-4.059c-1.34,0.091-2.906,0.947-3.821,2.055c-0.83,1.011-1.518,2.509-1.25,3.959 C50.105,44.061,51.619,43.188,52.495,42.059z"/>
    <path fill="#514ED9" d="M78,88H22V12h56V88z M28,82h44V18H28V82z"/>
    <rect width="26" height="6" x="37" y="17.25" fill="#4343bf"/>
    <rect width="9" height="4" x="42" y="15" fill="#FF6140 "/>
    <rect width="4" height="4" x="55" y="15" fill="#FF6140 "/>
    <polygon fill="#33ccff" points="72,92 18,92 18,18 28,18 28,82 72,82"/>
    <text x="10%" y="90%" fill="#FF6140" font-family="Century Gothic" >
        Not Found
    </text>
</svg>