<svg xmlns="http://www.w3.org/2000/svg" viewBox="0 0 50 50"><path fill="white" d="M 6 8 C 4.3550302 8 3 9.3550302 3 11 L 3 37 L 0 37 L 0 39 C 0 40.105 0.895 41 2 41 L 48 41 C 49.105 41 50 40.105 50 39 L 50 37 L 47 37 L 47 11 C 47 9.3550302 45.64497 8 44 8 L 6 8 z M 6 10 L 22 10 C 22 10.552 22.448 11 23 11 L 27 11 C 27.552 11 28 10.552 28 10 L 44 10 C 44.56503 10 45 10.43497 45 11 L 45 37 L 30 37 C 29.36 37.64 28.490938 38 27.585938 38 L 22.414062 38 C 21.508063 38 20.64 37.64 20 37 L 5 37 L 5 11 C 5 10.43497 5.4349698 10 6 10 z"/></svg>